<svg xmlns="http://www.w3.org/2000/svg" version="1.1" xmlns:xlink="http://www.w3.org/1999/xlink" xmlns:svgjs="http://svgjs.dev/svgjs" width="1000" height="212" viewBox="0 0 1000 212"><g transform="matrix(1,0,0,1,-0.6060604183539908,0.5426208847332532)"><svg viewBox="0 0 396 84" data-background-color="#471aa0" preserveAspectRatio="xMidYMid meet" height="212" width="1000" xmlns="http://www.w3.org/2000/svg" xmlns:xlink="http://www.w3.org/1999/xlink"><g id="tight-bounds" transform="matrix(1,0,0,1,0.2400000743318742,-0.21500072791317848)"><svg viewBox="0 0 395.52 84.43000110263259" height="84.43000110263259" width="395.52"><g><svg viewBox="0 0 410.54634444444446 87.63761204016541" height="84.43000110263259" width="395.52"><g><svg viewBox="0 0 410.54634444444446 87.63761204016541" height="87.63761204016541" width="410.54634444444446"><g id="textblocktransform"><svg viewBox="0 0 410.54634444444446 87.63761204016541" height="87.63761204016541" width="410.54634444444446" id="textblock"><g><svg viewBox="0 0 410.54634444444446 54.202999999999996" height="54.202999999999996" width="410.54634444444446"><g><svg><g></g><g></g></svg></g><g><svg><g><svg></svg></g><g></g></svg></g><g id="text-0"><svg viewBox="0 0 410.54634444444446 54.202999999999996" height="54.202999999999996" width="410.54634444444446"><g transform="matrix(1,0,0,1,0,0)"><svg width="349.5689" viewBox="1.9000000953674316 -32.70000076293945 216.04000854492188 33.5" height="54.202999999999996" data-palette-color="#b10dc9"><path d="M9.1 0Q7.35 0 5 0.2 2.65 0.4 1.9 0.5L1.9 0.5 2.25-2.8Q4.4-3.2 5.15-4.03 5.9-4.85 5.9-6.8L5.9-6.8 5.95-26.4Q5.95-27.8 5.6-28.35 5.25-28.9 4.35-28.9L4.35-28.9Q3.85-28.9 3.35-28.85 2.85-28.8 2.65-28.8L2.65-28.8 2.3-29.2 2.75-32.2Q3.55-32.2 5.68-32.15 7.8-32.1 9.65-32.1L9.65-32.1Q11.55-32.1 13.9-32.2 16.25-32.3 17.2-32.35L17.2-32.35Q22.35-32.35 25.05-30.35 27.75-28.35 27.75-24.6L27.75-24.6Q27.75-22.1 26.33-20.18 24.9-18.25 22.35-16.95L22.35-16.95Q25.6-16.1 27.53-14.25 29.45-12.4 29.45-9.5L29.45-9.5Q29.45-6.55 27.83-4.28 26.2-2 23.28-0.75 20.35 0.5 16.5 0.5L16.5 0.5Q15.9 0.5 14.85 0.4 13.8 0.3 13.25 0.25L13.25 0.25Q12.6 0.2 11.25 0.1 9.9 0 9.1 0L9.1 0ZM12.55-18.4Q13.15-18.35 14.95-18.15 16.75-17.95 17.35-17.95L17.35-17.95Q17.35-17.85 18.32-18.48 19.3-19.1 20.08-20.3 20.85-21.5 20.85-23.35L20.85-23.35Q20.85-25.9 19.15-27.1 17.45-28.3 13.85-28.3L13.85-28.3Q13.35-28.3 13.18-28.1 13-27.9 12.95-27.35L12.95-27.35Q12.65-23.3 12.55-18.4L12.55-18.4ZM12.45-14.05L12.25-6.65Q12.25-5.05 13.35-4.38 14.45-3.7 17-3.7L17-3.7Q19.45-3.7 20.85-5.05 22.25-6.4 22.25-8.75L22.25-8.75Q22.25-10.8 20.93-12.18 19.6-13.55 17.1-14.1L17.1-14.1 12.45-14.05ZM33.5 0.5L33.9-2.85Q35.8-3.15 36.5-4.05 37.2-4.95 37.2-7.15L37.2-7.15 37.25-26.3Q37.25-27.85 36.9-28.38 36.55-28.9 35.45-28.9L35.45-28.9 33.9-28.85 33.65-29.25 34.05-32.15 40.75-32.1Q42.15-32.1 44.82-32.25 47.5-32.4 48.35-32.45L48.35-32.45 48-29Q46.3-28.8 45.52-28.43 44.75-28.05 44.52-27.38 44.3-26.7 44.2-25.25L44.2-25.25Q43.65-17.75 43.65-6.9L43.65-6.9Q43.65-5.55 43.9-4.93 44.15-4.3 44.8-4.08 45.45-3.85 46.8-3.85L46.8-3.85Q49.3-3.85 50.52-4.4 51.75-4.95 52.35-6.5 52.95-8.05 53.35-11.4L53.35-11.4 57.4-11.85 57.75-11.35Q57.6-10.4 57.17-7.08 56.75-3.75 56.45-0.1L56.45-0.1 55.95 0.4Q54.6 0.35 50.1 0.18 45.6 0 41.95 0L41.95 0Q39.2 0 36.7 0.2 34.2 0.4 33.5 0.5L33.5 0.5ZM73.59 0.6Q69.19 0.6 65.97-1.33 62.74-3.25 61.02-6.8 59.3-10.35 59.3-15.2L59.3-15.2Q59.3-20.4 61.34-24.35 63.39-28.3 67.12-30.5 70.84-32.7 75.69-32.7L75.69-32.7Q80.19-32.7 83.47-30.83 86.75-28.95 88.47-25.43 90.19-21.9 90.19-17.05L90.19-17.05Q90.19-11.85 88.12-7.83 86.05-3.8 82.27-1.6 78.5 0.6 73.59 0.6L73.59 0.6ZM74.89-3.65Q78.5-3.65 80.52-6.48 82.55-9.3 82.55-14.45L82.55-14.45Q82.55-21 80.39-24.48 78.25-27.95 74.3-27.95L74.3-27.95Q70.75-27.95 68.77-25.13 66.8-22.3 66.8-17.15L66.8-17.15Q66.8-10.6 68.92-7.13 71.05-3.65 74.89-3.65L74.89-3.65ZM107.94 0.6Q103.34 0.6 99.99-1.3 96.64-3.2 94.84-6.75 93.04-10.3 93.04-15.15L93.04-15.15Q93.04-20.55 95.19-24.5 97.34-28.45 101.34-30.58 105.34-32.7 110.79-32.7L110.79-32.7Q112.74-32.7 114.94-32.43 117.14-32.15 118.69-31.85 120.24-31.55 120.69-31.45L120.69-31.45 121.04-30.8Q120.94-30.5 120.69-29.28 120.44-28.05 120.17-26.03 119.89-24 119.74-21.7L119.74-21.7 114.94-21.35Q114.99-21.55 115.04-22.3 115.09-23.05 115.09-24.1L115.09-24.1Q115.09-26.2 113.82-27.08 112.54-27.95 109.59-27.95L109.59-27.95Q105.04-27.95 102.79-25.23 100.54-22.5 100.54-16.85L100.54-16.85Q100.54-10.7 102.82-7.33 105.09-3.95 109.14-3.95L109.14-3.95Q110.49-3.95 111.59-4.25 112.69-4.55 113.32-4.88 113.94-5.2 114.09-5.3L114.09-5.3 114.09-10.05Q114.09-11.5 113.64-11.98 113.19-12.45 111.84-12.45L111.84-12.45 109.24-12.45 108.99-12.85 109.49-16.4Q110.69-16.4 111.54-16.35L111.54-16.35Q114.34-16.25 116.44-16.25L116.44-16.25Q117.99-16.25 119.49-16.35 120.99-16.45 121.44-16.5L121.44-16.5 121.79-14.6Q120.94-14.05 120.52-13.23 120.09-12.4 119.94-10.88 119.79-9.35 119.79-6.4L119.79-6.4Q119.79-3.4 120.14-2.05L120.14-2.05 119.69-1.45Q119.69-1.4 118.02-0.85 116.34-0.3 113.72 0.15 111.09 0.6 107.94 0.6L107.94 0.6ZM129.74 0.3L130.14-2.95Q132.44-3.15 133.44-3.55 134.44-3.95 134.79-4.95 135.14-5.95 135.14-8.25L135.14-8.25 135.14-28.3Q132.24-28.2 131.06-27.8 129.89-27.4 129.44-26.18 128.99-24.95 128.64-21.75L128.64-21.75 124.54-21.45Q124.89-25.6 125.14-32.1L125.14-32.1 125.69-32.65 130.64-32.1 146.24-32.1 151.29-32.65 151.84-32.1Q151.94-26.1 152.34-21.75L152.34-21.75 148.24-21.45Q147.84-24.85 147.42-26.1 146.99-27.35 145.92-27.78 144.84-28.2 142.09-28.3L142.09-28.3Q141.84-24.6 141.67-18.25 141.49-11.9 141.49-6.7L141.49-6.7Q141.49-4.85 142.14-4.05 142.79-3.25 144.24-3.25L144.24-3.25Q145.49-3.25 146.89-3.4L146.89-3.4 147.09-3.15 146.64 0.2Q141.34 0 138.04 0L138.04 0Q135.44 0 129.74 0.3L129.74 0.3ZM168.04 0.6Q163.64 0.6 160.41-1.33 157.19-3.25 155.46-6.8 153.74-10.35 153.74-15.2L153.74-15.2Q153.74-20.4 155.79-24.35 157.84-28.3 161.56-30.5 165.29-32.7 170.14-32.7L170.14-32.7Q174.64-32.7 177.91-30.83 181.19-28.95 182.91-25.43 184.64-21.9 184.64-17.05L184.64-17.05Q184.64-11.85 182.56-7.83 180.49-3.8 176.71-1.6 172.94 0.6 168.04 0.6L168.04 0.6ZM169.34-3.65Q172.94-3.65 174.96-6.48 176.99-9.3 176.99-14.45L176.99-14.45Q176.99-21 174.84-24.48 172.69-27.95 168.74-27.95L168.74-27.95Q165.19-27.95 163.21-25.13 161.24-22.3 161.24-17.15L161.24-17.15Q161.24-10.6 163.36-7.13 165.49-3.65 169.34-3.65L169.34-3.65ZM211.74 0.8Q208.49 0.8 206.29-3.85L206.29-3.85 201.94-12.65 198.39-12.65 198.29-7Q198.29-5.25 198.54-4.48 198.79-3.7 199.49-3.45 200.19-3.2 201.89-3.15L201.89-3.15 202.04-2.85 201.59 0.2Q200.69 0.15 198.44 0.1 196.19 0.05 194.29 0.05L194.29 0.05Q192.44 0.05 190.49 0.15 188.54 0.25 187.94 0.3L187.94 0.3 188.39-3Q190.49-3.25 191.21-4.1 191.94-4.95 191.94-7.1L191.94-7.1 191.94-26.45Q191.94-27.9 191.61-28.4 191.29-28.9 190.34-28.9L190.34-28.9Q189.79-28.9 189.29-28.85 188.79-28.8 188.64-28.8L188.64-28.8 188.34-29.2 188.79-32.2Q189.49-32.2 191.36-32.15 193.24-32.1 195.04-32.1L195.04-32.1Q197.04-32.1 199.36-32.18 201.69-32.25 202.59-32.3L202.59-32.3Q208.29-32.3 211.31-30.1 214.34-27.9 214.34-23.75L214.34-23.75Q214.34-20.8 212.59-18.35 210.84-15.9 207.59-14.25L207.59-14.25 211.99-7.1Q213.39-4.8 214.69-3.8 215.99-2.8 217.59-2.8L217.59-2.8 217.94-2.35 217.59 0.25 211.74 0.8ZM203.04-16.5Q204.69-17.2 206.04-18.57 207.39-19.95 207.39-22.85L207.39-22.85Q207.39-25.6 205.54-26.95 203.69-28.3 199.84-28.3L199.84-28.3Q199.34-28.3 199.16-28.1 198.99-27.9 198.94-27.2L198.94-27.2Q198.64-22.05 198.54-17L198.54-17 203.04-16.5Z" opacity="1" transform="matrix(1,0,0,1,0,0)" fill="#b10dc9" class="wordmark-text-0" data-fill-palette-color="primary"></path></svg></g><g><svg xmlns="http://www.w3.org/2000/svg" xmlns:xlink="http://www.w3.org/1999/xlink" version="1.1" x="362.3659" y="0" viewBox="10 5 80 90" style="enable-background:new 0 0 100 100;" xml:space="preserve" height="54.202999999999996" width="48.18044444444445" class="icon-s-0" data-fill-palette-color="accent" id="s-0"><g fill="#ffffff" data-fill-palette-color="accent"><rect x="70" y="20" width="20" height="60" fill="#ffffff" data-fill-palette-color="accent"></rect><path d="M10 80l56 15V5L10 20V80zM25.4 30l3.4 28.4L33.7 30h8.6l4.5 28.4 4-28.4h7.8l-5.8 34.6H42.2l-4.3-26.4-4.5 26.4H22.9L17.2 30H25.4z" fill="#ffffff" data-fill-palette-color="accent"></path></g></svg></g></svg></g></svg></g><g transform="matrix(1,0,0,1,78.4143517888889,66.99902742799999)"><svg viewBox="0 0 253.71764086666667 20.638584612165406" height="20.638584612165406" width="253.71764086666667"><g transform="matrix(1,0,0,1,0,0)"><svg width="253.71764086666667" viewBox="0.4000000059604645 -37.400001525878906 527.9299926757812 42.95000076293945" height="20.638584612165406" data-palette-color="#2ecc40"><path d="M16.55-2.45L0.4 0.05 6.95-35.5 22.75-36.85Q22.4-35.75 22.15-34.6L22.15-34.6Q21.9-33.65 21.68-32.63 21.45-31.6 21.3-30.8L21.3-30.8Q20.8-30.75 19.88-30.73 18.95-30.7 17.9-30.68 16.85-30.65 15.78-30.65 14.7-30.65 13.9-30.65L13.9-30.65 12.15-21.7Q13.7-21.8 15.05-21.85L15.05-21.85Q16.15-21.9 17.3-21.9 18.45-21.9 19-21.95L19-21.95Q18.8-20.55 18.63-19.2 18.45-17.85 18.2-16.45L18.2-16.45Q17.7-16.4 16.57-16.38 15.45-16.35 14.3-16.3L14.3-16.3Q13-16.25 11.45-16.2L11.45-16.2 9.75-7 17.05-8.15 16.55-2.45ZM30.85-1.6Q29.3-1.6 27.57-1.5 25.85-1.4 24.1-1.2 22.35-1 20.67-0.68 19-0.35 17.65 0.1L17.65 0.1Q17.95-2.15 18.35-4.9 18.75-7.65 19.27-10.6 19.8-13.55 20.32-16.55 20.85-19.55 21.4-22.3L21.4-22.3Q22.65-28.85 24.05-35.65L24.05-35.65 32.8-36.8Q31.45-31 30.2-25.5L30.2-25.5Q29.65-23.15 29.1-20.63 28.55-18.1 28.05-15.7 27.55-13.3 27.15-11.05 26.75-8.8 26.5-7.05L26.5-7.05Q27.75-7.15 29.17-7.18 30.6-7.2 31.7-7.2L31.7-7.2Q31.75-6.25 31.85-5.33 31.95-4.4 32.07-3.65 32.2-2.9 32.27-2.33 32.35-1.75 32.4-1.55L32.4-1.55Q32-1.55 31.62-1.58 31.25-1.6 30.85-1.6L30.85-1.6ZM48.7-2.45L32.55 0.05 39.1-35.5 54.9-36.85Q54.55-35.75 54.3-34.6L54.3-34.6Q54.05-33.65 53.82-32.63 53.6-31.6 53.45-30.8L53.45-30.8Q52.95-30.75 52.02-30.73 51.09-30.7 50.05-30.68 49-30.65 47.92-30.65 46.85-30.65 46.05-30.65L46.05-30.65 44.3-21.7Q45.85-21.8 47.2-21.85L47.2-21.85Q48.3-21.9 49.45-21.9 50.59-21.9 51.15-21.95L51.15-21.95Q50.95-20.55 50.77-19.2 50.59-17.85 50.34-16.45L50.34-16.45Q49.84-16.4 48.72-16.38 47.6-16.35 46.45-16.3L46.45-16.3Q45.15-16.25 43.6-16.2L43.6-16.2 41.9-7 49.2-8.15 48.7-2.45ZM65.09-1.5L52.14 0.45Q52.79-6.55 53.34-13.3L53.34-13.3Q53.59-16.1 53.82-19.2 54.04-22.3 54.22-25.33 54.39-28.35 54.49-31.18 54.59-34 54.64-36.35L54.64-36.35Q55.84-36.35 57.22-36.4 58.59-36.45 59.72-36.5 60.84-36.55 61.64-36.63 62.44-36.7 62.44-36.7L62.44-36.7Q61.89-30.9 61.49-27.18 61.09-23.45 60.87-21.13 60.64-18.8 60.47-16.65 60.29-14.5 60.09-12.65 59.89-10.8 59.74-9.5L59.74-9.5 60.64-9.5 66.24-36.1Q67.59-36.15 68.99-36.25L68.99-36.25Q70.24-36.35 71.62-36.4 72.99-36.45 74.14-36.6L74.14-36.6Q73.44-34.4 72.72-31.75 71.99-29.1 71.22-26.25 70.44-23.4 69.72-20.45 68.99-17.5 68.29-14.75L68.29-14.75Q66.69-8.3 65.09-1.5L65.09-1.5ZM86.54-1Q85.29-0.8 83.79-0.55 82.29-0.3 81.09-0.1L81.09-0.1Q81.29-1.75 81.49-3.35L81.49-3.35Q81.64-4.75 81.77-6.15 81.89-7.55 81.99-8.55L81.99-8.55 77.64-8.55 75.64-1.35Q74.54-1.2 73.04-1.03 71.54-0.85 70.24-0.7L70.24-0.7Q68.64-0.5 67.09-0.3L67.09-0.3Q69.09-6.95 71.04-13.4L71.04-13.4Q71.84-16.1 72.72-19.05 73.59-22 74.47-24.93 75.34-27.85 76.14-30.55 76.94-33.25 77.54-35.5L77.54-35.5Q80.94-35.75 84.47-36.1 87.99-36.45 91.34-37.05L91.34-37.05Q91.19-35.45 91.02-33.08 90.84-30.7 90.69-27.9 90.54-25.1 90.39-22.05 90.24-19 90.09-16.05L90.09-16.05Q89.84-9.15 89.54-1.4L89.54-1.4Q88.04-1.15 86.54-1L86.54-1ZM81.94-26.1L78.84-13.55Q79.04-13.55 79.57-13.58 80.09-13.6 80.67-13.63 81.24-13.65 81.74-13.68 82.24-13.7 82.44-13.75L82.44-13.75Q82.44-14.05 82.52-14.78 82.59-15.5 82.67-16.43 82.74-17.35 82.84-18.45 82.94-19.55 83.04-20.6L83.04-20.6Q83.24-23.15 83.54-26.1L83.54-26.1 83.84-30.45 83.09-30.4 81.94-26.1ZM103.29-1.35L94.29 0.05Q95.44-5.45 96.49-10.8L96.49-10.8Q96.94-13.05 97.39-15.5 97.84-17.95 98.26-20.33 98.69-22.7 99.01-24.93 99.34-27.15 99.59-29L99.59-29Q98.44-29.15 97.26-29.1 96.09-29.05 94.94-29.4L94.94-29.4Q94.99-30.2 94.99-31.25 94.99-32.3 95.04-33.35L95.04-33.35Q95.09-34.5 95.14-35.8L95.14-35.8Q96.44-35.7 97.74-35.65 99.04-35.6 100.34-35.6L100.34-35.6Q102.89-35.6 105.26-35.73 107.64-35.85 109.66-36.02 111.69-36.2 113.64-36.45L113.64-36.45 113.09-33.75Q112.84-32.6 112.61-31.4 112.39-30.2 112.19-29.35L112.19-29.35Q111.09-29.05 109.96-28.93 108.84-28.8 107.74-28.6L107.74-28.6Q107.39-26.9 106.99-24.83 106.59-22.75 106.21-20.53 105.84-18.3 105.49-16 105.14-13.7 104.79-11.6L104.79-11.6Q103.99-6.65 103.29-1.35L103.29-1.35ZM124.44-2.45L108.29 0.05 114.84-35.5 130.64-36.85Q130.29-35.75 130.04-34.6L130.04-34.6Q129.79-33.65 129.56-32.63 129.34-31.6 129.19-30.8L129.19-30.8Q128.69-30.75 127.76-30.73 126.84-30.7 125.79-30.68 124.74-30.65 123.66-30.65 122.59-30.65 121.79-30.65L121.79-30.65 120.04-21.7Q121.59-21.8 122.94-21.85L122.94-21.85Q124.04-21.9 125.19-21.9 126.34-21.9 126.89-21.95L126.89-21.95Q126.69-20.55 126.51-19.2 126.34-17.85 126.09-16.45L126.09-16.45Q125.59-16.4 124.46-16.38 123.34-16.35 122.19-16.3L122.19-16.3Q120.89-16.25 119.34-16.2L119.34-16.2 117.64-7 124.94-8.15 124.44-2.45ZM147.13-1.65L136.73 0.2 140.53-35.3Q142.88-35.4 144.96-35.77 147.03-36.15 149.08-36.3L149.08-36.3Q149.08-36.25 148.93-35.27 148.78-34.3 148.53-32.73 148.28-31.15 147.98-29.18 147.68-27.2 147.11-23.75 146.53-20.3 145.58-14.2L145.58-14.2 146.33-14.2Q147.63-18.8 148.48-21.73 149.33-24.65 149.86-26.48 150.38-28.3 150.86-30 151.33-31.7 151.75-33.15 152.18-34.6 152.43-35.6L152.43-35.6 152.88-35.6Q153.78-35.6 154.71-35.7 155.63-35.8 156.46-35.93 157.28-36.05 158.18-36.25L158.18-36.25Q158.08-35.8 157.96-34.4 157.83-33 157.63-31.03 157.43-29.05 157.23-26.68 157.03-24.3 156.83-22.03 156.63-19.75 156.46-17.7 156.28-15.65 156.13-14.2L156.13-14.2 157.03-14.2 161.78-35.7Q163.48-35.95 165.13-36.15L165.13-36.15Q166.58-36.35 168.13-36.55 169.68-36.75 170.88-37L170.88-37Q170.13-34.9 169.38-32.33 168.63-29.75 167.83-26.9 167.03-24.05 166.31-21.15 165.58-18.25 164.88-15.55L164.88-15.55Q163.28-9.15 161.78-2.4L161.78-2.4 150.48-0.5 152.68-19.8 152.08-19.8 147.13-1.65ZM192.73-27.05Q192.73-22.95 191.85-19.33 190.98-15.7 189.53-12.68 188.08-9.65 186.15-7.28 184.23-4.9 182.13-3.23 180.03-1.55 177.88-0.68 175.73 0.2 173.78 0.2L173.78 0.2Q172.13 0.2 170.78-0.43 169.43-1.05 168.43-2.27 167.43-3.5 166.85-5.43 166.28-7.35 166.28-10.05L166.28-10.05Q166.28-12.85 166.98-15.95 167.68-19.05 168.88-22.1 170.08-25.15 171.83-27.9 173.58-30.65 175.68-32.77 177.78-34.9 180.18-36.15 182.58-37.4 185.18-37.4L185.18-37.4Q187.43-37.4 188.9-36.48 190.38-35.55 191.2-34.08 192.03-32.6 192.38-30.75 192.73-28.9 192.73-27.05L192.73-27.05ZM173.73-11.35Q173.73-10.8 173.93-10.2 174.13-9.6 174.48-9.15 174.83-8.7 175.35-8.38 175.88-8.05 176.48-8.05L176.48-8.05Q178.73-8.05 180.48-9.6 182.23-11.15 183.38-13.4 184.53-15.65 185.15-18.2 185.78-20.75 185.78-22.85L185.78-22.85Q185.78-23.45 185.7-24.15 185.63-24.85 185.4-25.45 185.18-26.05 184.7-26.48 184.23-26.9 183.43-26.9L183.43-26.9Q181.83-26.9 180.48-26.1 179.13-25.3 178.05-23.98 176.98-22.65 176.18-20.98 175.38-19.3 174.8-17.57 174.23-15.85 173.98-14.2 173.73-12.55 173.73-11.35L173.73-11.35ZM197.68-2.05L189.58 0.05Q190.93-6.6 192.18-12.95L192.18-12.95Q192.63-15.65 193.18-18.57 193.73-21.5 194.2-24.38 194.68-27.25 195.1-29.93 195.53-32.6 195.78-34.8L195.78-34.8Q198.63-35.7 201.93-36.13 205.23-36.55 208.48-36.55L208.48-36.55Q210.43-36.55 211.7-36.1 212.98-35.65 213.7-34.83 214.43-34 214.73-32.9 215.03-31.8 215.03-30.45L215.03-30.45Q215.03-28.45 214.33-26.53 213.63-24.6 212.45-22.88 211.28-21.15 209.75-19.73 208.23-18.3 206.48-17.4L206.48-17.4Q207.38-15.4 208.4-13.03 209.43-10.65 210.33-8.5L210.33-8.5Q211.33-6 212.38-3.5L212.38-3.5 204.63-0.8Q203.63-4 202.83-6.8L202.83-6.8Q202.48-7.95 202.13-9.18 201.78-10.4 201.48-11.5 201.18-12.6 200.98-13.48 200.78-14.35 200.73-14.9L200.73-14.9 200.08-14.7Q199.78-13.1 199.35-10.95 198.93-8.8 198.58-6.8L198.58-6.8Q198.13-4.45 197.68-2.05L197.68-2.05ZM202.93-29.6L201.33-21.65Q202.28-21.75 203.65-22.45 205.03-23.15 206.28-24.13 207.53-25.1 208.43-26.15 209.33-27.2 209.33-28L209.33-28Q209.33-28.55 208.98-28.88 208.63-29.2 208-29.38 207.38-29.55 206.63-29.6 205.88-29.65 205.08-29.65L205.08-29.65Q204.53-29.65 203.95-29.63 203.38-29.6 202.93-29.6L202.93-29.6ZM237.02-25.55Q237.02-22.95 236.27-20.03 235.52-17.1 234.17-14.23 232.82-11.35 230.85-8.72 228.87-6.1 226.37-4.13 223.87-2.15 220.9-0.95 217.92 0.25 214.57 0.25L214.57 0.25Q213.87 0.25 213.17 0.18 212.47 0.1 211.77 0L211.77 0Q213.12-6.9 214.42-13.45L214.42-13.45Q214.92-16.2 215.47-19.18 216.02-22.15 216.52-25.05 217.02-27.95 217.5-30.6 217.97-33.25 218.27-35.4L218.27-35.4Q220.42-35.8 222.62-36.15 224.82-36.5 227.12-36.5L227.12-36.5Q229.82-36.5 231.7-35.65 233.57-34.8 234.75-33.3 235.92-31.8 236.47-29.8 237.02-27.8 237.02-25.55L237.02-25.55ZM225.22-29.45Q224.67-26.5 224.07-23.8 223.47-21.1 222.87-18.35 222.27-15.6 221.67-12.6 221.07-9.6 220.52-6.05L220.52-6.05Q221.72-6.85 222.85-8.22 223.97-9.6 224.97-11.4 225.97-13.2 226.8-15.2 227.62-17.2 228.22-19.1 228.82-21 229.15-22.65 229.47-24.3 229.47-25.5L229.47-25.5Q229.47-27.35 228.45-28.4 227.42-29.45 225.22-29.45L225.22-29.45ZM255.77-12.35Q255.77-9.55 254.7-7.28 253.62-5 251.8-3.35 249.97-1.7 247.5-0.8 245.02 0.1 242.17 0.1L242.17 0.1Q240.17 0.1 238.17-0.98 236.17-2.05 234.32-4.4L234.32-4.4 238.02-11.65Q238.37-11 239.07-10.33 239.77-9.65 240.65-9.15 241.52-8.65 242.4-8.33 243.27-8 243.97-8L243.97-8Q244.57-8 245.22-8.2 245.87-8.4 246.42-8.8 246.97-9.2 247.3-9.73 247.62-10.25 247.62-10.95L247.62-10.95Q247.62-12.15 246.85-13.18 246.07-14.2 244.92-15.13 243.77-16.05 242.42-17 241.07-17.95 239.95-19 238.82-20.05 238.02-21.35 237.22-22.65 237.22-24.25L237.22-24.25Q237.22-26.85 238.77-29.1 240.32-31.35 242.65-32.98 244.97-34.6 247.72-35.55 250.47-36.5 252.92-36.5L252.92-36.5Q254.27-36.5 255.47-36.18 256.67-35.85 257.55-35.13 258.42-34.4 258.95-33.3 259.47-32.2 259.47-30.55L259.47-30.55Q259.47-29.85 259.35-29.15 259.22-28.45 259.12-27.65L259.12-27.65 251.87-25.55Q251.97-25.95 252.05-26.35 252.12-26.75 252.12-27.15L252.12-27.15Q252.12-28.65 251.6-29.33 251.07-30 250.22-30L250.22-30Q249.82-30 249.25-29.7 248.67-29.4 248.1-28.93 247.52-28.45 247.12-27.8 246.72-27.15 246.72-26.4L246.72-26.4Q246.72-25.2 247.4-24.4 248.07-23.6 249.07-22.9 250.07-22.2 251.25-21.48 252.42-20.75 253.42-19.6 254.42-18.45 255.1-16.73 255.77-15 255.77-12.35L255.77-12.35ZM261.27 5.55L253.42 5.55Q253.82 3.55 254.27 1.48 254.72-0.6 255.12-2.53 255.52-4.45 255.84-6.1 256.17-7.75 256.32-9L256.32-9Q256.72-9 257.59-8.97 258.47-8.95 258.92-8.95L258.92-8.95Q259.62-8.95 260.74-8.95 261.87-8.95 262.99-9 264.12-9.05 265.37-9.1L265.37-9.1Q264.97-7.25 264.29-4.73 263.62-2.2 262.87 0.3 262.12 2.8 261.27 5.55L261.27 5.55ZM296.86-12.35Q296.86-9.55 295.79-7.28 294.71-5 292.89-3.35 291.06-1.7 288.59-0.8 286.11 0.1 283.26 0.1L283.26 0.1Q281.26 0.1 279.26-0.98 277.26-2.05 275.41-4.4L275.41-4.4 279.11-11.65Q279.46-11 280.16-10.33 280.86-9.65 281.74-9.15 282.61-8.65 283.49-8.33 284.36-8 285.06-8L285.06-8Q285.66-8 286.31-8.2 286.96-8.4 287.51-8.8 288.06-9.2 288.39-9.73 288.71-10.25 288.71-10.95L288.71-10.95Q288.71-12.15 287.94-13.18 287.16-14.2 286.01-15.13 284.86-16.05 283.51-17 282.16-17.95 281.04-19 279.91-20.05 279.11-21.35 278.31-22.65 278.31-24.25L278.31-24.25Q278.31-26.85 279.86-29.1 281.41-31.35 283.74-32.98 286.06-34.6 288.81-35.55 291.56-36.5 294.01-36.5L294.01-36.5Q295.36-36.5 296.56-36.18 297.76-35.85 298.64-35.13 299.51-34.4 300.04-33.3 300.56-32.2 300.56-30.55L300.56-30.55Q300.56-29.85 300.44-29.15 300.31-28.45 300.21-27.65L300.21-27.65 292.96-25.55Q293.06-25.95 293.14-26.35 293.21-26.75 293.21-27.15L293.21-27.15Q293.21-28.65 292.69-29.33 292.16-30 291.31-30L291.31-30Q290.91-30 290.34-29.7 289.76-29.4 289.19-28.93 288.61-28.45 288.21-27.8 287.81-27.15 287.81-26.4L287.81-26.4Q287.81-25.2 288.49-24.4 289.16-23.6 290.16-22.9 291.16-22.2 292.34-21.48 293.51-20.75 294.51-19.6 295.51-18.45 296.19-16.73 296.86-15 296.86-12.35L296.86-12.35ZM304.31-1.5L296.61 0.1Q298.01-6.9 299.31-13.55L299.31-13.55Q299.81-16.4 300.36-19.48 300.91-22.55 301.39-25.55 301.86-28.55 302.29-31.38 302.71-34.2 302.96-36.5L302.96-36.5Q304.11-36.45 305.09-36.38 306.06-36.3 307.01-36.25 307.96-36.2 308.94-36.18 309.91-36.15 311.06-36.15L311.06-36.15Q310.21-32.6 309.39-29.05 308.56-25.5 307.86-21.9L307.86-21.9 312.81-22.45Q313.51-26 314.06-29.33 314.61-32.65 315.51-36.2L315.51-36.2Q316.66-36.4 318.06-36.52 319.46-36.65 320.66-36.75 321.86-36.85 322.69-36.93 323.51-37 323.51-37L323.51-37Q322.81-34.75 322.19-32.08 321.56-29.4 320.96-26.53 320.36-23.65 319.81-20.7 319.26-17.75 318.81-15.1L318.81-15.1Q317.71-8.75 316.76-2.1L316.76-2.1 308.96-1.2Q309.61-4.2 310.11-7.05L310.11-7.05Q310.61-9.45 311.14-12.05 311.66-14.65 311.96-16.5L311.96-16.5 307.11-16.05Q306.76-14.15 306.29-11.65 305.81-9.15 305.41-6.9L305.41-6.9Q304.86-4.2 304.31-1.5L304.31-1.5ZM336.66-1Q335.41-0.8 333.91-0.55 332.41-0.3 331.21-0.1L331.21-0.1Q331.41-1.75 331.61-3.35L331.61-3.35Q331.76-4.75 331.88-6.15 332.01-7.55 332.11-8.55L332.11-8.55 327.76-8.55 325.76-1.35Q324.66-1.2 323.16-1.03 321.66-0.85 320.36-0.7L320.36-0.7Q318.76-0.5 317.21-0.3L317.21-0.3Q319.21-6.95 321.16-13.4L321.16-13.4Q321.96-16.1 322.83-19.05 323.71-22 324.58-24.93 325.46-27.85 326.26-30.55 327.06-33.25 327.66-35.5L327.66-35.5Q331.06-35.75 334.58-36.1 338.11-36.45 341.46-37.05L341.46-37.05Q341.31-35.45 341.13-33.08 340.96-30.7 340.81-27.9 340.66-25.1 340.51-22.05 340.36-19 340.21-16.05L340.21-16.05Q339.96-9.15 339.66-1.4L339.66-1.4Q338.16-1.15 336.66-1L336.66-1ZM332.06-26.1L328.96-13.55Q329.16-13.55 329.68-13.58 330.21-13.6 330.78-13.63 331.36-13.65 331.86-13.68 332.36-13.7 332.56-13.75L332.56-13.75Q332.56-14.05 332.63-14.78 332.71-15.5 332.78-16.43 332.86-17.35 332.96-18.45 333.06-19.55 333.16-20.6L333.16-20.6Q333.36-23.15 333.66-26.1L333.66-26.1 333.96-30.45 333.21-30.4 332.06-26.1ZM348.21-2.05L340.11 0.05Q341.46-6.6 342.71-12.95L342.71-12.95Q343.16-15.65 343.71-18.57 344.26-21.5 344.73-24.38 345.21-27.25 345.63-29.93 346.06-32.6 346.31-34.8L346.31-34.8Q349.16-35.7 352.46-36.13 355.76-36.55 359.01-36.55L359.01-36.55Q360.96-36.55 362.23-36.1 363.51-35.65 364.23-34.83 364.96-34 365.26-32.9 365.56-31.8 365.56-30.45L365.56-30.45Q365.56-28.45 364.86-26.53 364.16-24.6 362.98-22.88 361.81-21.15 360.28-19.73 358.76-18.3 357.01-17.4L357.01-17.4Q357.91-15.4 358.93-13.03 359.96-10.65 360.86-8.5L360.86-8.5Q361.86-6 362.91-3.5L362.91-3.5 355.16-0.8Q354.16-4 353.36-6.8L353.36-6.8Q353.01-7.95 352.66-9.18 352.31-10.4 352.01-11.5 351.71-12.6 351.51-13.48 351.31-14.35 351.26-14.9L351.26-14.9 350.61-14.7Q350.31-13.1 349.88-10.95 349.46-8.8 349.11-6.8L349.11-6.8Q348.66-4.45 348.21-2.05L348.21-2.05ZM353.46-29.6L351.86-21.65Q352.81-21.75 354.18-22.45 355.56-23.15 356.81-24.13 358.06-25.1 358.96-26.15 359.86-27.2 359.86-28L359.86-28Q359.86-28.55 359.51-28.88 359.16-29.2 358.53-29.38 357.91-29.55 357.16-29.6 356.41-29.65 355.61-29.65L355.61-29.65Q355.06-29.65 354.48-29.63 353.91-29.6 353.46-29.6L353.46-29.6ZM378.65-2.45L362.5 0.05 369.05-35.5 384.85-36.85Q384.5-35.75 384.25-34.6L384.25-34.6Q384-33.65 383.78-32.63 383.55-31.6 383.4-30.8L383.4-30.8Q382.9-30.75 381.98-30.73 381.05-30.7 380-30.68 378.95-30.65 377.88-30.65 376.8-30.65 376-30.65L376-30.65 374.25-21.7Q375.8-21.8 377.15-21.85L377.15-21.85Q378.25-21.9 379.4-21.9 380.55-21.9 381.1-21.95L381.1-21.95Q380.9-20.55 380.73-19.2 380.55-17.85 380.3-16.45L380.3-16.45Q379.8-16.4 378.68-16.38 377.55-16.35 376.4-16.3L376.4-16.3Q375.1-16.25 373.55-16.2L373.55-16.2 371.85-7 379.15-8.15 378.65-2.45ZM411.05-12.35Q411.05-9.55 409.97-7.28 408.9-5 407.07-3.35 405.25-1.7 402.77-0.8 400.3 0.1 397.45 0.1L397.45 0.1Q395.45 0.1 393.45-0.98 391.45-2.05 389.6-4.4L389.6-4.4 393.3-11.65Q393.65-11 394.35-10.33 395.05-9.65 395.92-9.15 396.8-8.65 397.67-8.33 398.55-8 399.25-8L399.25-8Q399.85-8 400.5-8.2 401.15-8.4 401.7-8.8 402.25-9.2 402.57-9.73 402.9-10.25 402.9-10.95L402.9-10.95Q402.9-12.15 402.12-13.18 401.35-14.2 400.2-15.13 399.05-16.05 397.7-17 396.35-17.95 395.22-19 394.1-20.05 393.3-21.35 392.5-22.65 392.5-24.25L392.5-24.25Q392.5-26.85 394.05-29.1 395.6-31.35 397.92-32.98 400.25-34.6 403-35.55 405.75-36.5 408.2-36.5L408.2-36.5Q409.55-36.5 410.75-36.18 411.95-35.85 412.82-35.13 413.7-34.4 414.22-33.3 414.75-32.2 414.75-30.55L414.75-30.55Q414.75-29.85 414.62-29.15 414.5-28.45 414.4-27.65L414.4-27.65 407.15-25.55Q407.25-25.95 407.32-26.35 407.4-26.75 407.4-27.15L407.4-27.15Q407.4-28.65 406.87-29.33 406.35-30 405.5-30L405.5-30Q405.1-30 404.52-29.7 403.95-29.4 403.37-28.93 402.8-28.45 402.4-27.8 402-27.15 402-26.4L402-26.4Q402-25.2 402.67-24.4 403.35-23.6 404.35-22.9 405.35-22.2 406.52-21.48 407.7-20.75 408.7-19.6 409.7-18.45 410.37-16.73 411.05-15 411.05-12.35L411.05-12.35ZM423.9-1.35L414.9 0.05Q416.05-5.45 417.1-10.8L417.1-10.8Q417.55-13.05 418-15.5 418.45-17.95 418.87-20.33 419.3-22.7 419.62-24.93 419.95-27.15 420.2-29L420.2-29Q419.05-29.15 417.87-29.1 416.7-29.05 415.55-29.4L415.55-29.4Q415.6-30.2 415.6-31.25 415.6-32.3 415.65-33.35L415.65-33.35Q415.7-34.5 415.75-35.8L415.75-35.8Q417.05-35.7 418.35-35.65 419.65-35.6 420.95-35.6L420.95-35.6Q423.5-35.6 425.87-35.73 428.25-35.85 430.27-36.02 432.3-36.2 434.25-36.45L434.25-36.45 433.7-33.75Q433.45-32.6 433.22-31.4 433-30.2 432.8-29.35L432.8-29.35Q431.7-29.05 430.57-28.93 429.45-28.8 428.35-28.6L428.35-28.6Q428-26.9 427.6-24.83 427.2-22.75 426.82-20.53 426.45-18.3 426.1-16 425.75-13.7 425.4-11.6L425.4-11.6Q424.6-6.65 423.9-1.35L423.9-1.35ZM456.49-27.05Q456.49-22.95 455.62-19.33 454.74-15.7 453.29-12.68 451.84-9.65 449.92-7.28 447.99-4.9 445.89-3.23 443.79-1.55 441.64-0.68 439.49 0.2 437.54 0.2L437.54 0.2Q435.89 0.2 434.54-0.43 433.19-1.05 432.19-2.27 431.19-3.5 430.62-5.43 430.04-7.35 430.04-10.05L430.04-10.05Q430.04-12.85 430.74-15.95 431.44-19.05 432.64-22.1 433.84-25.15 435.59-27.9 437.34-30.65 439.44-32.77 441.54-34.9 443.94-36.15 446.34-37.4 448.94-37.4L448.94-37.4Q451.19-37.4 452.67-36.48 454.14-35.55 454.97-34.08 455.79-32.6 456.14-30.75 456.49-28.9 456.49-27.05L456.49-27.05ZM437.49-11.35Q437.49-10.8 437.69-10.2 437.89-9.6 438.24-9.15 438.59-8.7 439.12-8.38 439.64-8.05 440.24-8.05L440.24-8.05Q442.49-8.05 444.24-9.6 445.99-11.15 447.14-13.4 448.29-15.65 448.92-18.2 449.54-20.75 449.54-22.85L449.54-22.85Q449.54-23.45 449.47-24.15 449.39-24.85 449.17-25.45 448.94-26.05 448.47-26.48 447.99-26.9 447.19-26.9L447.19-26.9Q445.59-26.9 444.24-26.1 442.89-25.3 441.82-23.98 440.74-22.65 439.94-20.98 439.14-19.3 438.57-17.57 437.99-15.85 437.74-14.2 437.49-12.55 437.49-11.35L437.49-11.35ZM461.44-2.05L453.34 0.05Q454.69-6.6 455.94-12.95L455.94-12.95Q456.39-15.65 456.94-18.57 457.49-21.5 457.97-24.38 458.44-27.25 458.87-29.93 459.29-32.6 459.54-34.8L459.54-34.8Q462.39-35.7 465.69-36.13 468.99-36.55 472.24-36.55L472.24-36.55Q474.19-36.55 475.47-36.1 476.74-35.65 477.47-34.83 478.19-34 478.49-32.9 478.79-31.8 478.79-30.45L478.79-30.45Q478.79-28.45 478.09-26.53 477.39-24.6 476.22-22.88 475.04-21.15 473.52-19.73 471.99-18.3 470.24-17.4L470.24-17.4Q471.14-15.4 472.17-13.03 473.19-10.65 474.09-8.5L474.09-8.5Q475.09-6 476.14-3.5L476.14-3.5 468.39-0.8Q467.39-4 466.59-6.8L466.59-6.8Q466.24-7.95 465.89-9.18 465.54-10.4 465.24-11.5 464.94-12.6 464.74-13.48 464.54-14.35 464.49-14.9L464.49-14.9 463.84-14.7Q463.54-13.1 463.12-10.95 462.69-8.8 462.34-6.8L462.34-6.8Q461.89-4.45 461.44-2.05L461.44-2.05ZM466.69-29.6L465.09-21.65Q466.04-21.75 467.42-22.45 468.79-23.15 470.04-24.13 471.29-25.1 472.19-26.15 473.09-27.2 473.09-28L473.09-28Q473.09-28.55 472.74-28.88 472.39-29.2 471.77-29.38 471.14-29.55 470.39-29.6 469.64-29.65 468.84-29.65L468.84-29.65Q468.29-29.65 467.72-29.63 467.14-29.6 466.69-29.6L466.69-29.6ZM483.84-1Q483.39-1 482.06-0.88 480.74-0.75 479.34-0.58 477.94-0.4 476.81-0.25 475.69-0.1 475.59-0.05L475.59-0.05Q476.09-2.2 476.61-4.83 477.14-7.45 477.69-10.33 478.24-13.2 478.74-16.15 479.24-19.1 479.69-21.85L479.69-21.85Q480.74-28.25 481.79-35L481.79-35 489.59-36.25Q488.44-29.55 487.34-23.1L487.34-23.1Q486.89-20.35 486.41-17.4 485.94-14.45 485.46-11.55 484.99-8.65 484.59-5.93 484.19-3.2 483.84-1L483.84-1ZM501.99-2.45L485.84 0.05 492.39-35.5 508.19-36.85Q507.84-35.75 507.59-34.6L507.59-34.6Q507.34-33.65 507.11-32.63 506.89-31.6 506.74-30.8L506.74-30.8Q506.24-30.75 505.31-30.73 504.39-30.7 503.34-30.68 502.29-30.65 501.21-30.65 500.14-30.65 499.34-30.65L499.34-30.65 497.59-21.7Q499.14-21.8 500.49-21.85L500.49-21.85Q501.59-21.9 502.74-21.9 503.89-21.9 504.44-21.95L504.44-21.95Q504.24-20.55 504.06-19.2 503.89-17.85 503.64-16.45L503.64-16.45Q503.14-16.4 502.01-16.38 500.89-16.35 499.74-16.3L499.74-16.3Q498.44-16.25 496.89-16.2L496.89-16.2 495.19-7 502.49-8.15 501.99-2.45ZM524.63-12.35Q524.63-9.55 523.56-7.28 522.48-5 520.66-3.35 518.83-1.7 516.36-0.8 513.88 0.1 511.03 0.1L511.03 0.1Q509.03 0.1 507.03-0.98 505.03-2.05 503.18-4.4L503.18-4.4 506.88-11.65Q507.23-11 507.93-10.33 508.63-9.65 509.51-9.15 510.38-8.65 511.26-8.33 512.13-8 512.83-8L512.83-8Q513.43-8 514.08-8.2 514.73-8.4 515.28-8.8 515.83-9.2 516.16-9.73 516.48-10.25 516.48-10.95L516.48-10.95Q516.48-12.15 515.71-13.18 514.93-14.2 513.78-15.13 512.63-16.05 511.28-17 509.93-17.95 508.81-19 507.68-20.05 506.88-21.35 506.08-22.65 506.08-24.25L506.08-24.25Q506.08-26.85 507.63-29.1 509.18-31.35 511.51-32.98 513.83-34.6 516.58-35.55 519.33-36.5 521.78-36.5L521.78-36.5Q523.13-36.5 524.33-36.18 525.53-35.85 526.41-35.13 527.28-34.4 527.81-33.3 528.33-32.2 528.33-30.55L528.33-30.55Q528.33-29.85 528.21-29.15 528.08-28.45 527.98-27.65L527.98-27.65 520.73-25.55Q520.83-25.95 520.91-26.35 520.98-26.75 520.98-27.15L520.98-27.15Q520.98-28.65 520.46-29.33 519.93-30 519.08-30L519.08-30Q518.68-30 518.11-29.7 517.53-29.4 516.96-28.93 516.38-28.45 515.98-27.8 515.58-27.15 515.58-26.4L515.58-26.4Q515.58-25.2 516.26-24.4 516.93-23.6 517.93-22.9 518.93-22.2 520.11-21.48 521.28-20.75 522.28-19.6 523.28-18.45 523.96-16.73 524.63-15 524.63-12.35L524.63-12.35Z" opacity="1" transform="matrix(1,0,0,1,0,0)" fill="#2ecc40" class="slogan-text-1" data-fill-palette-color="secondary" id="text-1"></path></svg></g></svg></g></svg></g></svg></g><g></g></svg></g><defs></defs></svg><rect width="395.52" height="84.43000110263259" fill="none" stroke="none" visibility="hidden"></rect></g></svg></g></svg>